<?xml version="1.0" encoding="UTF-8"?>
<svg version="1.1" xmlns="http://www.w3.org/2000/svg" width="500" height="500">
<path d="M0 0 C0.60537598 0.32081543 1.21075195 0.64163086 1.83447266 0.97216797 C10.94774016 5.81274626 19.04754437 11.47298453 27 18 C27.85078125 18.68835938 27.85078125 18.68835938 28.71875 19.390625 C67.0459797 50.53149913 90.56757731 95.66248686 95.6875 144.6875 C98.1077828 181.49596758 91.79350331 217.47210025 74 250 C73.43539063 251.04414063 72.87078125 252.08828125 72.2890625 253.1640625 C65.86205286 264.59991533 58.27525166 275.00079986 49.296875 284.55078125 C47.30891246 286.67059844 45.42865364 288.8364453 43.5625 291.0625 C30.96506869 305.4055338 14.73105805 316.07004974 -2 325 C-2.94617188 325.51949219 -3.89234375 326.03898437 -4.8671875 326.57421875 C-47.61552687 349.13255296 -98.25281266 351.13316666 -144.08984375 337.84375 C-190.09273382 323.31135356 -228.49499421 290.50945538 -251 248 C-251.87011719 246.44925781 -251.87011719 246.44925781 -252.7578125 244.8671875 C-275.1479837 203.19938011 -277.14277889 152.24658414 -264.26220703 107.43310547 C-254.4583742 75.11770284 -235.06942335 44.6380928 -209 23 C-208.15308594 22.25363281 -207.30617188 21.50726563 -206.43359375 20.73828125 C-149.92110965 -28.23920497 -65.17145577 -35.40919496 0 0 Z " fill="#FDFDFD" transform="translate(338,88)"/>
<path d="M0 0 C4.08307739 1.31375068 6.62628512 3.56879052 9.4375 6.8125 C11.32107355 10.65499004 11.59438596 12.765 11 17 C9.58798868 20.66216841 7.67927617 23.41251791 4.6875 26 C1.14854656 27.31681989 -1.3587149 26.78537522 -5 26 C-5 25.01 -5 24.02 -5 23 C-4.113125 23.04125 -3.22625 23.0825 -2.3125 23.125 C0.97277013 23.00102754 3.05449295 22.38612096 6 21 C7.36253607 14.90735948 7.36253607 14.90735948 6.0234375 9.03515625 C3.49975621 6.01706956 1.50232419 4.16934411 -2.42578125 3.7265625 C-8.6447645 3.43879861 -8.6447645 3.43879861 -14.0625 6.1875 C-17.5190028 11.20500406 -18.61452973 14.85470271 -18 21 C-14.99079322 30.6431399 -9.07462965 36.56360857 -0.953125 42.2265625 C1.32855085 44.29832417 2.06783666 46.09442703 3 49 C4.14855469 49.04898438 5.29710937 49.09796875 6.48046875 49.1484375 C39.68860762 50.68791141 39.68860762 50.68791141 48.34375 57.97265625 C50 60 50 60 49.9375 62.5625 C48.97076039 65.076023 48.05615305 66.30143878 46 68 C45.34 67.67 44.68 67.34 44 67 C44.66 65.02 45.32 63.04 46 61 C33.13972236 54.34021337 18.20573112 53.49441478 4 52 C4 52.66 4 53.32 4 54 C3.01 54 2.02 54 1 54 C1 53.34 1 52.68 1 52 C-32.01768342 50.96054829 -32.01768342 50.96054829 -62 62 C-61.6728026 65.81730304 -60.61281764 68.15166526 -57.75 70.74609375 C-36.79912414 85.75777043 -3.52656373 85.19840738 20.87109375 81.7421875 C31.97241312 79.89670624 41.57078766 75.51031896 51.27954102 70.03491211 C57.23294448 66.69676137 62.07541452 65.51406418 69 66 C74.78835568 68.08380805 78.36458042 71.72916084 81.11328125 77.2265625 C84.06312452 86.45294454 82.56702474 97.12549464 78.74609375 105.828125 C71.41441478 119.1465217 61.72055455 128.44363788 47 133 C47 133.99 47 134.98 47 136 C47.84820312 136.15855469 48.69640625 136.31710937 49.5703125 136.48046875 C76.47507507 141.83185559 76.47507507 141.83185559 82 150 C82.75 153.5625 82.75 153.5625 82 157 C75.76683723 165.72642788 63.87979864 168.11739294 54 170.1875 C52.90816406 170.43435547 51.81632813 170.68121094 50.69140625 170.93554688 C31.91195954 175.00623619 13.33640577 175.40307437 -5.8125 175.375 C-7.70678741 175.37518127 -7.70678741 175.37518127 -9.63934326 175.37536621 C-28.05147201 175.35024057 -45.93908913 174.89908992 -64 171 C-64.80324707 170.8345166 -65.60649414 170.6690332 -66.43408203 170.49853516 C-76.13320612 168.44038228 -87.95332799 165.46534081 -94 157 C-94.75 153.5625 -94.75 153.5625 -94 150 C-87.74692358 141.04524597 -73.79233355 138.72426547 -63.875 136.48046875 C-61.18338205 136.03064673 -58.72178815 135.90493755 -56 136 C-56.58007812 134.92685547 -56.58007812 134.92685547 -57.171875 133.83203125 C-64.95530427 118.9394797 -68.12328712 104.21554124 -68.25 87.5 C-68.2593457 86.63882568 -68.26869141 85.77765137 -68.27832031 84.89038086 C-68.25580528 80.48479439 -68.06810847 77.00490847 -66 73 C-65.34 73.33 -64.68 73.66 -64 74 C-64.01047363 74.58789307 -64.02094727 75.17578613 -64.03173828 75.78149414 C-64.3952947 99.37814655 -63.39699888 123.63091895 -46.34765625 141.859375 C-33.54339326 153.53447669 -17.88131566 154.77020111 -1.36328125 154.35546875 C5.80030424 154.00482143 12.22840821 152.38704827 19 150 C20.37865234 149.566875 20.37865234 149.566875 21.78515625 149.125 C31.32257566 145.82301863 38.68767886 139.49971382 44 131 C42.3054832 129.87032213 40.60357838 128.75105014 38.87890625 127.66796875 C33.81875196 124.43390724 29.75338205 121.5067641 27 116 C26.82630168 114.04660577 26.73303898 112.08557296 26.6875 110.125 C26.63142578 108.55105469 26.63142578 108.55105469 26.57421875 106.9453125 C27.09782933 103.32327237 28.14026056 102.20503719 31 100 C35.207839 99.24474685 37.5590033 100.64045941 41 103 C41.268125 102.38125 41.53625 101.7625 41.8125 101.125 C43 99 43 99 46 97 C50.15564273 97 51.71541654 97.75253613 54.875 100.5 C57.28682973 103.77821517 57.65756455 106.54748024 57.43359375 110.55859375 C56.39108166 116.42859428 53.67989257 121.72471597 51 127 C62.46077266 123.1255544 68.7661751 115.17888226 74.58984375 104.89453125 C78.73007904 96.39615354 79.82970614 86.49519128 76.8125 77.375 C74.84867118 73.7182153 73.6626016 71.95338752 70 70 C59.57845746 68.58690949 50.52733393 74.63387055 41.58984375 79.31640625 C19.11154462 89.85845949 -9.26128877 89.64976478 -33 84 C-33.65532715 83.85546387 -34.3106543 83.71092773 -34.98583984 83.56201172 C-46.7503656 80.96143234 -56.77402809 77.28220202 -64.85546875 68.02734375 C-66.30970738 65.4514057 -66.41398792 63.91652164 -66 61 C-62.36933123 55.45172449 -56.32301206 53.88813847 -50.1796875 52.5859375 C-49.13039062 52.39257812 -48.08109375 52.19921875 -47 52 C-45.99195313 51.80664062 -44.98390625 51.61328125 -43.9453125 51.4140625 C-33.06656797 49.46436543 -22.35257027 48.84961212 -11.3125 48.9375 C-9.66991211 48.94426758 -9.66991211 48.94426758 -7.99414062 48.95117188 C-5.32936691 48.96280844 -2.66471483 48.97915436 0 49 C-3.06172768 45.87060983 -6.1978089 42.92963386 -9.50463867 40.05493164 C-16.81715992 33.63627759 -21.49548406 27.68483623 -22.25 17.6875 C-21.78244714 10.79109538 -19.13786468 6.4956316 -14 2 C-9.51589587 -0.98940275 -5.25619078 -0.58810526 0 0 Z " fill="#181818" transform="translate(256,156)"/>
<path d="M0 0 C1.625 1.25 1.625 1.25 3 3 C11.94575493 12.71591926 24.85195585 17.66687733 37.8203125 18.2734375 C55.35457713 18.76608227 75.74578762 17.58088343 89.28515625 4.8515625 C90.19587891 3.87316406 90.19587891 3.87316406 91.125 2.875 C93.59433933 0.50832467 94.58587921 0.02221338 98.05859375 -0.1640625 C109.54083959 1.19281382 123.64473278 4.64473278 132 13 C132.125 15.3125 132.125 15.3125 131 18 C103.50847082 40.23848153 46.59976263 35.11981013 13.66918945 32.07080078 C3.67464834 30.98990049 -6.28781173 29.64877862 -16 27 C-17.13308594 26.70222656 -18.26617187 26.40445312 -19.43359375 26.09765625 C-32.2212441 22.48343952 -32.2212441 22.48343952 -37 18 C-38 15.1875 -38 15.1875 -38 13 C-31.23645368 7.04163776 -24.69942283 4.429786 -16 2.3125 C-15.1234375 2.08755859 -14.246875 1.86261719 -13.34375 1.63085938 C-4.43909718 -0.5751879 -4.43909718 -0.5751879 0 0 Z " fill="#FBFBFB" transform="translate(203,295)"/>
<path d="M0 0 C0 0.66 0 1.32 0 2 C0.99 2 1.98 2 3 2 C3 1.34 3 0.68 3 0 C9.41131996 -0.12887075 15.47786603 0.27614987 21.8125 1.25 C22.68181152 1.38349854 23.55112305 1.51699707 24.44677734 1.65454102 C38.38285437 3.92197001 38.38285437 3.92197001 44 7 C45.3515625 9.01171875 45.3515625 9.01171875 46 11 C45.25 12.875 45.25 12.875 44 15 C43.79375 15.99 43.5875 16.98 43.375 18 C41.39648453 22.31676102 38.27311323 23.31062965 34 25 C34 25.66 34 26.32 34 27 C8.40046551 36.64806576 -25.9704927 34.4706282 -51 24 C-56.21705504 21.40151816 -60.83010017 19.03396041 -64 14 C-64.125 11.5 -64.125 11.5 -63 9 C-46.36608309 -3.29463424 -19.37313947 -0.28039503 0 0 Z " fill="#D5C3BE" transform="translate(257,208)"/>
<path d="M0 0 C0.66 0.33 1.32 0.66 2 1 C1.98952637 1.58789307 1.97905273 2.17578613 1.96826172 2.78149414 C1.6047053 26.37814655 2.60300112 50.63091895 19.65234375 68.859375 C32.45660674 80.53447669 48.11868434 81.77020111 64.63671875 81.35546875 C71.80030424 81.00482143 78.22840821 79.38704827 85 77 C85.91910156 76.71125 86.83820313 76.4225 87.78515625 76.125 C95.44879977 73.47174475 102.10249865 68.71074057 107.1015625 62.30859375 C109 60 109 60 112 59 C112.33 60.32 112.66 61.64 113 63 C114.27230469 63.23783203 114.27230469 63.23783203 115.5703125 63.48046875 C142.47507507 68.83185559 142.47507507 68.83185559 148 77 C148.75 80.5625 148.75 80.5625 148 84 C141.76683723 92.72642788 129.87979864 95.11739294 120 97.1875 C118.90816406 97.43435547 117.81632813 97.68121094 116.69140625 97.93554688 C97.91195954 102.00623619 79.33640577 102.40307437 60.1875 102.375 C58.29321259 102.37518127 58.29321259 102.37518127 56.36065674 102.37536621 C37.94852799 102.35024057 20.06091087 101.89908992 2 98 C0.79512939 97.7517749 0.79512939 97.7517749 -0.43408203 97.49853516 C-10.13320612 95.44038228 -21.95332799 92.46534081 -28 84 C-28.75 80.5625 -28.75 80.5625 -28 77 C-21.74692358 68.04524597 -7.79233355 65.72426547 2.125 63.48046875 C4.81661795 63.03064673 7.27821185 62.90493755 10 63 C9.61328125 62.28457031 9.2265625 61.56914062 8.828125 60.83203125 C1.04469573 45.9394797 -2.12328712 31.21554124 -2.25 14.5 C-2.2593457 13.63882568 -2.26869141 12.77765137 -2.27832031 11.89038086 C-2.25580528 7.48479439 -2.06810847 4.00490847 0 0 Z M-2.8125 68.1875 C-3.66392578 68.38408203 -4.51535156 68.58066406 -5.39257812 68.78320312 C-12.53239033 70.55048337 -20.1131411 73.2087641 -25 79 C-25.38894914 81.49192611 -25.38894914 81.49192611 -24 84 C-18.26287544 89.28966081 -10.34326187 91.0702008 -3 93 C-2.02160156 93.26683594 -1.04320312 93.53367187 -0.03515625 93.80859375 C38.85833807 103.27447572 104.71573852 107.75110753 140.5 86.484375 C143.27835558 84.75754983 143.86443209 84.38128475 145 81.1875 C145 80.465625 145 79.74375 145 79 C137.44329089 71.64752627 127.03617945 69.37110332 117 67 C116.20464844 66.78472656 115.40929687 66.56945312 114.58984375 66.34765625 C112.20786925 65.85328418 110.40825057 65.63470357 108 66 C105.91730403 67.43586749 104.26185842 69.11071175 102.4609375 70.88671875 C87.01102407 84.15402537 65.39060775 85.37888766 46 84 C33.57225611 82.38775214 24.03052518 76.6511006 15.38671875 67.7578125 C10.0499746 63.82731354 3.13073466 66.70058169 -2.8125 68.1875 Z " fill="#131313" transform="translate(190,229)"/>
<path d="M0 0 C2.5646165 2.18746702 2.8573244 3.51116765 3.125 6.8125 C4.135625 6.60625 5.14625 6.4 6.1875 6.1875 C10.49796315 5.7769797 13.12515695 6.19717877 17.125 7.8125 C19.125 9.5625 19.125 9.5625 20.125 11.8125 C19.8125 15.0625 19.8125 15.0625 19.125 17.8125 C17.475 17.4825 15.825 17.1525 14.125 16.8125 C14.455 16.1525 14.785 15.4925 15.125 14.8125 C13.145 14.8125 11.165 14.8125 9.125 14.8125 C9.125 13.8225 9.125 12.8325 9.125 11.8125 C9.929375 11.68875 10.73375 11.565 11.5625 11.4375 C12.408125 11.23125 13.25375 11.025 14.125 10.8125 C14.455 10.1525 14.785 9.4925 15.125 8.8125 C13.70844207 8.7852585 12.29172955 8.76599533 10.875 8.75 C10.08609375 8.73839844 9.2971875 8.72679687 8.484375 8.71484375 C6.21808998 8.80864694 4.2961105 9.18008937 2.125 9.8125 C4.105 10.4725 6.085 11.1325 8.125 11.8125 C7.795 12.8025 7.465 13.7925 7.125 14.8125 C5.475 15.1425 3.825 15.4725 2.125 15.8125 C2.785 17.1325 3.445 18.4525 4.125 19.8125 C4.8675 19.60625 5.61 19.4 6.375 19.1875 C9.50296068 18.76095991 10.45095741 19.31549325 13.125 20.8125 C12.49851562 20.83828125 11.87203125 20.8640625 11.2265625 20.890625 C10.40929687 20.94734375 9.59203125 21.0040625 8.75 21.0625 C7.93789063 21.10890625 7.12578125 21.1553125 6.2890625 21.203125 C3.9582572 21.58713978 3.9582572 21.58713978 3.02734375 23.72265625 C2.72957031 24.41230469 2.43179687 25.10195313 2.125 25.8125 C-2.9667435 29.44945964 -7.5838294 30.96536957 -13.875 30.8125 C-16.9375 29.875 -16.9375 29.875 -18.875 28.8125 C-19.125 22.1875 -19.125 22.1875 -16.875 18.8125 C-17.555625 18.296875 -18.23625 17.78125 -18.9375 17.25 C-20.875 14.8125 -20.875 14.8125 -21.0625 11.5625 C-19.48761188 6.58916911 -16.74357245 3.27563254 -12.875 -0.1875 C-8.30873244 -1.70958919 -4.48387271 -1.85203438 0 0 Z " fill="#F3F3F3" transform="translate(399.875,252.1875)"/>
<path d="M0 0 C4.08307739 1.31375068 6.62628512 3.56879052 9.4375 6.8125 C11.32107355 10.65499004 11.59438596 12.765 11 17 C9.58798868 20.66216841 7.67927617 23.41251791 4.6875 26 C1.14854656 27.31681989 -1.3587149 26.78537522 -5 26 C-5 25.01 -5 24.02 -5 23 C-4.113125 23.04125 -3.22625 23.0825 -2.3125 23.125 C0.97277013 23.00102754 3.05449295 22.38612096 6 21 C7.36253607 14.90735948 7.36253607 14.90735948 6.0234375 9.03515625 C3.49975621 6.01706956 1.50232419 4.16934411 -2.42578125 3.7265625 C-8.6447645 3.43879861 -8.6447645 3.43879861 -14.0625 6.1875 C-17.5190028 11.20500406 -18.61452973 14.85470271 -18 21 C-14.99079322 30.6431399 -9.07462965 36.56360857 -0.953125 42.2265625 C1.32855085 44.29832417 2.06783666 46.09442703 3 49 C4.14855469 49.04898438 5.29710937 49.09796875 6.48046875 49.1484375 C39.68860762 50.68791141 39.68860762 50.68791141 48.34375 57.97265625 C50 60 50 60 49.9375 62.5625 C48.97076039 65.076023 48.05615305 66.30143878 46 68 C45.34 67.67 44.68 67.34 44 67 C44.66 65.02 45.32 63.04 46 61 C33.13972236 54.34021337 18.20573112 53.49441478 4 52 C4 52.66 4 53.32 4 54 C3.01 54 2.02 54 1 54 C1 53.34 1 52.68 1 52 C-33.85079551 51.19239403 -33.85079551 51.19239403 -65 64 C-65.495 62.515 -65.495 62.515 -66 61 C-60.2068039 55.07514035 -55.05214344 53.48381022 -47 52 C-45.99195313 51.80664062 -44.98390625 51.61328125 -43.9453125 51.4140625 C-33.06656797 49.46436543 -22.35257027 48.84961212 -11.3125 48.9375 C-9.66991211 48.94426758 -9.66991211 48.94426758 -7.99414062 48.95117188 C-5.32936691 48.96280844 -2.66471483 48.97915436 0 49 C-3.06172768 45.87060983 -6.1978089 42.92963386 -9.50463867 40.05493164 C-16.81715992 33.63627759 -21.49548406 27.68483623 -22.25 17.6875 C-21.78244714 10.79109538 -19.13786468 6.4956316 -14 2 C-9.51589587 -0.98940275 -5.25619078 -0.58810526 0 0 Z " fill="#161616" transform="translate(256,156)"/>
<path d="M0 0 C0.66 0.33 1.32 0.66 2 1 C1.98952637 1.58789307 1.97905273 2.17578613 1.96826172 2.78149414 C1.6047053 26.37814655 2.60300112 50.63091895 19.65234375 68.859375 C32.45660674 80.53447669 48.11868434 81.77020111 64.63671875 81.35546875 C71.79647579 81.00500883 78.23530479 79.39824158 85 77 C85.93070312 76.68804687 86.86140625 76.37609375 87.8203125 76.0546875 C93.80526607 73.87667687 98.8561574 70.72742217 104 67 C104 68.32 104 69.64 104 71 C100.66963704 73.83858974 96.80916321 75.86327411 93 78 C92.29488281 78.40734375 91.58976562 78.8146875 90.86328125 79.234375 C75.91182959 86.87165876 52.48604784 87.89770786 36.625 83.03125 C29.23539737 80.12819182 23.58673439 76.72854135 18 71.0625 C14.69150825 67.96141975 14.69150825 67.96141975 10.52734375 66.47265625 C3.80486746 66.86809603 -2.87068419 69.28007149 -9.25024414 71.35791016 C-14.692372 73.10254267 -14.692372 73.10254267 -18 72 C-17.67 71.01 -17.34 70.02 -17 69 C-14.375 67.90234375 -14.375 67.90234375 -11 66.9375 C-9.824375 66.60105469 -8.64875 66.26460938 -7.4375 65.91796875 C3.96052632 62.87417763 3.96052632 62.87417763 10 63 C9.61328125 62.28457031 9.2265625 61.56914062 8.828125 60.83203125 C1.04469573 45.9394797 -2.12328712 31.21554124 -2.25 14.5 C-2.2593457 13.63882568 -2.26869141 12.77765137 -2.27832031 11.89038086 C-2.25580528 7.48479439 -2.06810847 4.00490847 0 0 Z M111 59 C111 59.99 111 60.98 111 62 C109.02 62.99 109.02 62.99 107 64 C108.75 60.125 108.75 60.125 111 59 Z " fill="#131313" transform="translate(190,229)"/>
<path d="M0 0 C2.5646165 2.18746702 2.8573244 3.51116765 3.125 6.8125 C3.929375 6.585625 4.73375 6.35875 5.5625 6.125 C10.18365536 5.71963549 13.98355515 6.72521179 18.125 8.8125 C20.125 11.8125 20.125 11.8125 19.75 15 C19.54375 15.928125 19.3375 16.85625 19.125 17.8125 C18.465 17.4825 17.805 17.1525 17.125 16.8125 C17.125 14.8325 17.125 12.8525 17.125 10.8125 C15.5426994 10.47429834 13.95910625 10.14214061 12.375 9.8125 C11.05242187 9.5340625 11.05242187 9.5340625 9.703125 9.25 C6.90356035 8.70096325 6.90356035 8.70096325 3.125 8.8125 C3.125 9.4725 3.125 10.1325 3.125 10.8125 C4.775 10.8125 6.425 10.8125 8.125 10.8125 C7.795 12.1325 7.465 13.4525 7.125 14.8125 C5.145 14.8125 3.165 14.8125 1.125 14.8125 C1.62 15.26625 2.115 15.72 2.625 16.1875 C4.125 17.8125 4.125 17.8125 4.125 19.8125 C4.8675 19.60625 5.61 19.4 6.375 19.1875 C9.50296068 18.76095991 10.45095741 19.31549325 13.125 20.8125 C12.49851563 20.83828125 11.87203125 20.8640625 11.2265625 20.890625 C10.40929687 20.94734375 9.59203125 21.0040625 8.75 21.0625 C7.93789062 21.10890625 7.12578125 21.1553125 6.2890625 21.203125 C3.93661073 21.6047092 3.93661073 21.6047092 2.8359375 23.859375 C2.60132812 24.50390625 2.36671875 25.1484375 2.125 25.8125 C1.465 25.4825 0.805 25.1525 0.125 24.8125 C1.115 22.8325 2.105 20.8525 3.125 18.8125 C-3.41536249 18.34533125 -7.25560399 19.52792346 -12.875 22.8125 C-13.535 23.1425 -14.195 23.4725 -14.875 23.8125 C-15.205 23.1525 -15.535 22.4925 -15.875 21.8125 C-16.535 21.4825 -17.195 21.1525 -17.875 20.8125 C-17.545 20.1525 -17.215 19.4925 -16.875 18.8125 C-17.555625 18.296875 -18.23625 17.78125 -18.9375 17.25 C-20.875 14.8125 -20.875 14.8125 -20.8125 11.375 C-19.41481975 6.06381505 -18.15008273 3.7197704 -13.625 0.5 C-8.929826 -1.93673587 -4.91119635 -2.02853762 0 0 Z " fill="#EFEFEE" transform="translate(101.875,252.1875)"/>
<path d="M0 0 C4.03111727 2.62793158 7.20379497 5.4654628 9 10 C8.88697266 16.10347617 7.10379879 18.79610856 3 23 C-0.51691289 24.75845645 -4.17210537 24.68065337 -8 24 C-11.3792573 21.96994709 -14.22397384 19.55205232 -16 16 C-16.59150529 11.83700074 -17.07761681 7.70850006 -14.765625 4.04296875 C-10.14200657 -0.66076188 -6.551286 -1.6378215 0 0 Z " fill="#101010" transform="translate(146,141)"/>
<path d="M0 0 C2.81992717 1.82120296 4.50345478 3.00690956 6 6 C6.55601425 11.06793316 6.55831633 14.92187191 4.1875 19.5 C1.98554139 22.01652413 0.33518204 23.78128447 -3.05078125 24.3359375 C-8.54571137 24.4308413 -11.65487725 23.69335434 -16 20 C-17.97338848 16.05322303 -17.44290148 11.30160477 -17 7 C-13.1150476 -0.9086531 -8.10840426 -2.03794118 0 0 Z " fill="#0D0D0D" transform="translate(291,101)"/>
<path d="M0 0 C2.33450101 0.94839104 3.40351118 1.86914174 5 3.8125 C6.75160783 11.67106487 3.02720632 18.26488893 -0.75 24.875 C-1.1625 25.514375 -1.575 26.15375 -2 26.8125 C-5.84740968 26.24830388 -8.41398441 25.17929752 -11.625 23 C-12.38039063 22.49855469 -13.13578125 21.99710937 -13.9140625 21.48046875 C-17.07426688 18.95348884 -18.81783971 17.17968152 -19.36328125 13.0859375 C-19.33814453 11.65121094 -19.33814453 11.65121094 -19.3125 10.1875 C-19.30863281 9.22585938 -19.30476563 8.26421875 -19.30078125 7.2734375 C-19 4.8125 -19 4.8125 -17 2.8125 C-14.5625 2.9375 -14.5625 2.9375 -12 3.8125 C-10.375 5.8125 -10.375 5.8125 -9 7.8125 C-8.01 8.1425 -7.02 8.4725 -6 8.8125 C-5.896875 7.69875 -5.79375 6.585 -5.6875 5.4375 C-5.460625 4.24125 -5.23375 3.045 -5 1.8125 C-2 -0.1875 -2 -0.1875 0 0 Z " fill="#F7F7F7" transform="translate(305,256.1875)"/>
<path d="M0 0 C2.04119788 1.61594832 4.04072937 3.2856382 6 5 C6 5.66 6 6.32 6 7 C7.11375 6.690625 7.11375 6.690625 8.25 6.375 C11.37796068 5.94845991 12.32595741 6.50299325 15 8 C14.37351562 8.02578125 13.74703125 8.0515625 13.1015625 8.078125 C12.28429687 8.13484375 11.46703125 8.1915625 10.625 8.25 C9.81289063 8.29640625 9.00078125 8.3428125 8.1640625 8.390625 C5.8332572 8.77463978 5.8332572 8.77463978 4.90234375 10.91015625 C4.60457031 11.59980469 4.30679687 12.28945313 4 13 C-1.0917435 16.63695964 -5.7088294 18.15286957 -12 18 C-15.0625 17.0625 -15.0625 17.0625 -17 16 C-17.29785124 8.25586777 -17.29785124 8.25586777 -15 5 C-12.79296875 4.27734375 -12.79296875 4.27734375 -10.1875 3.9375 C-6.17460511 3.29288157 -3.33741344 2.44743652 0 0 Z " fill="#D6D6D5" transform="translate(398,265)"/>
<path d="M0 0 C1.796875 0.48046875 1.796875 0.48046875 4 2 C5.41330001 4.65728234 6.31508836 7.45768054 7.25 10.3125 C7.518125 11.07240234 7.78625 11.83230469 8.0625 12.61523438 C9.38884768 16.50968892 10.36626431 19.82958138 10 24 C8.1875 23.9375 8.1875 23.9375 6 23 C4.25 19.4375 4.25 19.4375 3 16 C-0.68266103 16.59950296 -4.34543185 17.24758891 -8 18 C-7.67 19.051875 -7.34 20.10375 -7 21.1875 C-6.16033218 24.38873357 -5.80249096 26.7411008 -6 30 C-7.87768555 29.74121094 -7.87768555 29.74121094 -10 29 C-11.11254883 27.31347656 -11.11254883 27.31347656 -11.95703125 25.140625 C-12.26447266 24.35429688 -12.57191406 23.56796875 -12.88867188 22.7578125 C-13.19353516 21.93023437 -13.49839844 21.10265625 -13.8125 20.25 C-14.13669922 19.43789062 -14.46089844 18.62578125 -14.79492188 17.7890625 C-17.60282682 10.40553516 -17.60282682 10.40553516 -16 6 C-14.125 6.625 -14.125 6.625 -12 8 C-10.75 11.125 -10.75 11.125 -10 14 C-5.05 12.515 -5.05 12.515 0 11 C0.11585689 7.11706373 0.11585689 7.11706373 -0.5625 3.8125 C-0.706875 2.884375 -0.85125 1.95625 -1 1 C-0.67 0.67 -0.34 0.34 0 0 Z " fill="#101010" transform="translate(200,103)"/>
<path d="M0 0 C0 1.32 0 2.64 0 4 C-1.11375 4.28875 -2.2275 4.5775 -3.375 4.875 C-7.00291092 5.69241329 -7.00291092 5.69241329 -9 8 C-8.6814823 10.10820797 -8.6814823 10.10820797 -8 12 C-7.360625 11.855625 -6.72125 11.71125 -6.0625 11.5625 C-4.5465625 11.2840625 -4.5465625 11.2840625 -3 11 C-2.27554688 10.85820312 -1.55109375 10.71640625 -0.8046875 10.5703125 C5.299673 9.58313869 5.299673 9.58313869 8.625 11.5625 C10 14 10 14 10.1875 16.875 C8.52720032 21.2442097 5.98553726 23.6118097 2 26 C-0.44793351 26.7244368 -2.42278728 26.89480764 -5 27 C-5.33 25.68 -5.66 24.36 -6 23 C-3.03 22.01 -0.06 21.02 3 20 C3.33 18.35 3.66 16.7 4 15 C3.175 15.144375 2.35 15.28875 1.5 15.4375 C-0.2325 15.7159375 -0.2325 15.7159375 -2 16 C-2.67289063 16.14179688 -3.34578125 16.28359375 -4.0390625 16.4296875 C-7.51338818 17.06729783 -9.46529046 17.31300071 -12.5625 15.5 C-14 13 -14 13 -14.125 9.5625 C-12.64729019 4.8830856 -10.98137565 3.76258719 -7 1 C-4.53721199 -0.231394 -2.7204945 -0.07159196 0 0 Z " fill="#121212" transform="translate(170,119)"/>
<path d="M0 0 C0 0.66 0 1.32 0 2 C-0.69859131 2.01458252 -1.39718262 2.02916504 -2.11694336 2.04418945 C-29.90114159 1.72740212 -29.90114159 1.72740212 -55 12 C-56.54069829 14.54906229 -56.75789615 15.97370191 -57 19 C-60.65316671 17.75023244 -61.78065836 17.32901247 -64 14 C-64.0625 11.5625 -64.0625 11.5625 -63 9 C-46.36608309 -3.29463424 -19.37313947 -0.28039503 0 0 Z " fill="#F2F1F1" transform="translate(257,208)"/>
<path d="M0 0 C2.79734456 1.16909456 3.61584103 3.05974328 5.10180664 5.64892578 C5.62258789 6.53322266 6.14336914 7.41751953 6.67993164 8.32861328 C7.85180664 10.77392578 7.85180664 10.77392578 7.85180664 13.77392578 C6.10180664 13.71142578 6.10180664 13.71142578 3.85180664 12.77392578 C2.25679127 10.53228256 1.10637646 8.23825935 -0.14819336 5.77392578 C-1.79819336 6.43392578 -3.44819336 7.09392578 -5.14819336 7.77392578 C-4.02367609 10.74586429 -2.92525545 13.10833265 -1.14819336 15.77392578 C-1.14819336 16.76392578 -1.14819336 17.75392578 -1.14819336 18.77392578 C-2.89819336 18.64892578 -2.89819336 18.64892578 -5.14819336 17.77392578 C-7.39819336 14.71142578 -7.39819336 14.71142578 -9.14819336 11.77392578 C-10.79819336 12.43392578 -12.44819336 13.09392578 -14.14819336 13.77392578 C-13.7756543 14.38880859 -13.40311523 15.00369141 -13.01928711 15.63720703 C-12.54620117 16.44544922 -12.07311523 17.25369141 -11.58569336 18.08642578 C-11.1100293 18.88693359 -10.63436523 19.68744141 -10.14428711 20.51220703 C-9.14819336 22.77392578 -9.14819336 22.77392578 -10.14819336 25.77392578 C-14.04588322 24.47469583 -14.72067077 22.82717416 -16.89819336 19.39892578 C-17.84952148 17.93326172 -17.84952148 17.93326172 -18.82006836 16.43798828 C-20.14819336 13.77392578 -20.14819336 13.77392578 -19.14819336 10.77392578 C-16.5714251 8.5881451 -13.67587406 6.84892275 -10.83569336 5.02392578 C-9.67650391 4.2446875 -9.67650391 4.2446875 -8.49389648 3.44970703 C-7.74430664 2.96373047 -6.9947168 2.47775391 -6.22241211 1.97705078 C-5.19506958 1.30657715 -5.19506958 1.30657715 -4.14697266 0.62255859 C-2.14819336 -0.22607422 -2.14819336 -0.22607422 0 0 Z " fill="#121212" transform="translate(384.148193359375,166.22607421875)"/>
<path d="M0 0 C2.66168834 1.16164766 4.26954489 2.71173254 6.30859375 4.7734375 C7.36820312 5.82144531 7.36820312 5.82144531 8.44921875 6.890625 C10.05859375 8.8984375 10.05859375 8.8984375 10.05859375 11.8984375 C5.81037001 11.42641264 3.85869666 8.93188232 1.05859375 5.8984375 C-0.92140625 6.8884375 -0.92140625 6.8884375 -2.94140625 7.8984375 C-1.89868651 10.1442954 -0.85491258 12.00821793 0.68359375 13.9609375 C2.05859375 15.8984375 2.05859375 15.8984375 2.05859375 18.8984375 C-1.19683854 18.54964118 -1.96013732 17.87710489 -4.19140625 15.3359375 C-4.76890625 14.5315625 -5.34640625 13.7271875 -5.94140625 12.8984375 C-7.26140625 13.2284375 -8.58140625 13.5584375 -9.94140625 13.8984375 C-10.71135124 15.72486021 -10.71135124 15.72486021 -10.94140625 17.8984375 C-9.76190752 19.68275395 -9.76190752 19.68275395 -8.00390625 21.1484375 C-7.43800781 21.66921875 -6.87210937 22.19 -6.2890625 22.7265625 C-5.62197266 23.30664062 -5.62197266 23.30664062 -4.94140625 23.8984375 C-5.27140625 24.8884375 -5.60140625 25.8784375 -5.94140625 26.8984375 C-9.27138307 25.46603062 -11.34069585 23.71607226 -13.75390625 21.0234375 C-14.37910156 20.34539062 -15.00429688 19.66734375 -15.6484375 18.96875 C-16.94140625 16.8984375 -16.94140625 16.8984375 -16.8359375 14.8515625 C-15.12063017 11.10634999 -11.9264822 8.65298283 -8.94140625 5.8984375 C-8.32136719 5.29773438 -7.70132812 4.69703125 -7.0625 4.078125 C-6.46566406 3.52382812 -5.86882812 2.96953125 -5.25390625 2.3984375 C-4.71378906 1.893125 -4.17367188 1.3878125 -3.6171875 0.8671875 C-1.94140625 -0.1015625 -1.94140625 -0.1015625 0 0 Z " fill="#111111" transform="translate(363.94140625,143.1015625)"/>
<path d="M0 0 C0.76183594 -0.00515625 1.52367187 -0.0103125 2.30859375 -0.015625 C4.77693018 0.2752708 6.420186 1.02024344 8.5625 2.25 C8.5625 3.57 8.5625 4.89 8.5625 6.25 C8.046875 6.085 7.53125 5.92 7 5.75 C3.10471728 4.95096765 -0.74601265 4.37697427 -4.375 6.25 C-6.06934205 9.43934975 -5.80826101 12.71351041 -5.4375 16.25 C-5.1075 17.24 -4.7775 18.23 -4.4375 19.25 C-1.79291621 20.57229189 0.24011301 20.34677194 3.1875 20.3125 C4.19039063 20.30347656 5.19328125 20.29445313 6.2265625 20.28515625 C7.38285156 20.26775391 7.38285156 20.26775391 8.5625 20.25 C8.25 22.1875 8.25 22.1875 7.5625 24.25 C3.50248425 25.60333858 -0.19253981 25.78714786 -4.4375 25.25 C-7.52848636 23.47432699 -8.96700156 22.05656876 -10.75 19 C-12.12144523 13.51421908 -12.27749618 9.81413081 -9.625 4.875 C-6.60692732 1.25331279 -4.6334149 -0.03125406 0 0 Z " fill="#0F0F0F" transform="translate(253.4375,95.75)"/>
<path d="M0 0 C3.375 1.125 3.375 1.125 5.375 2.6875 C6.87602137 6.3462396 6.35569693 9.35665274 5.375 13.125 C4.3125 15.625 4.3125 15.625 2.375 17.125 C-0.40260031 17.68167981 -2.84796215 17.68619307 -5.625 17.125 C-8.48375712 14.891596 -8.59436401 13.33179292 -9.125 9.75 C-8.33640566 4.03269103 -6.3068055 0.21747605 0 0 Z " fill="#F5F4F4" transform="translate(286.625,103.875)"/>
<path d="M0 0 C2.875 2.4375 2.875 2.4375 5 5 C5.33 5.33 5.66 5.66 6 6 C6.3125 9.375 6.3125 9.375 6 13 C3.86903642 15.54076427 2.34882196 15.92416914 -0.875 16.625 C-4.94115581 15.81176884 -6.38020078 14.16484465 -8.86328125 10.9453125 C-10.51767701 8.11407853 -10.65216037 6.18833957 -10 3 C-7.71722091 -1.02843369 -4.21619382 -0.58154398 0 0 Z " fill="#F7F7F7" transform="translate(144,145)"/>
<path d="M0 0 C0.66 0.33 1.32 0.66 2 1 C0.79620632 5.41391016 -0.35188383 8.16257631 -4 11 C-9.15746712 13.51876301 -13.52463417 12.90039349 -19 12 C-21.125 7.375 -21.125 7.375 -20 4 C-17.9375 3.3125 -17.9375 3.3125 -16 3 C-15.67 3.66 -15.34 4.32 -15 5 C-14.071875 4.360625 -13.14375 3.72125 -12.1875 3.0625 C-7.8846925 0.27833044 -5.05043626 -0.21491218 0 0 Z " fill="#DCDBDB" transform="translate(103,270)"/>
<path d="M0 0 C4.18381827 0.52752491 7.24700519 1.41868489 10.875 3.5625 C11.65617187 4.01753906 12.43734375 4.47257812 13.2421875 4.94140625 C14.11230469 5.46541016 14.11230469 5.46541016 15 6 C14.67 6.99 14.34 7.98 14 9 C13.113125 8.690625 12.22625 8.38125 11.3125 8.0625 C8.53290845 7.1709329 5.86863625 6.50622993 3 6 C2.34 7.65 1.68 9.3 1 11 C1.928125 11.28875 2.85625 11.5775 3.8125 11.875 C7 13 7 13 10 15 C9.67 15.99 9.34 16.98 9 18 C5.27566618 16.7874262 1.62197194 15.49140021 -2 14 C-2.2475 15.11375 -2.495 16.2275 -2.75 17.375 C-4 21 -4 21 -6.125 22.4375 C-6.74375 22.623125 -7.3625 22.80875 -8 23 C-8.88207936 20.54679315 -9.10244103 19.31599145 -8.28735352 16.80175781 C-7.90506592 16.02670898 -7.52277832 15.25166016 -7.12890625 14.453125 C-6.71962891 13.60878906 -6.31035156 12.76445313 -5.88867188 11.89453125 C-5.2322168 10.58548828 -5.2322168 10.58548828 -4.5625 9.25 C-4.12873047 8.36183594 -3.69496094 7.47367187 -3.24804688 6.55859375 C-2.17580868 4.36698601 -1.09289767 2.1813591 0 0 Z " fill="#121212" transform="translate(313,110)"/>
<path d="M0 0 C3.75339814 0.81277116 6.12595342 2.30167682 9.25 4.5625 C10.14203125 5.20316406 11.0340625 5.84382812 11.953125 6.50390625 C12.96632813 7.24447266 12.96632813 7.24447266 14 8 C13.67 8.99 13.34 9.98 13 11 C9.51750769 9.74243333 6.93534151 8.2268108 4 6 C3.34 6 2.68 6 2 6 C1.34 7.65 0.68 9.3 0 11 C0.5053125 11.32613281 1.010625 11.65226563 1.53125 11.98828125 C2.1809375 12.42527344 2.830625 12.86226562 3.5 13.3125 C4.1496875 13.74175781 4.799375 14.17101562 5.46875 14.61328125 C5.9740625 15.07089844 6.479375 15.52851563 7 16 C7 16.99 7 17.98 7 19 C4.41895019 18.53909825 3.06556549 18.05327196 1 16.375 C-0.87017048 14.81115706 -0.87017048 14.81115706 -3 15 C-5.77360271 16.38680136 -7.08981636 18.59686574 -9 21 C-9.99 21 -10.98 21 -12 21 C-11.63848787 15.0489541 -8.96058934 11.66411136 -5.4375 7.125 C-4.91736328 6.43664062 -4.39722656 5.74828125 -3.86132812 5.0390625 C-2.58416442 3.35180036 -1.29341639 1.67483572 0 0 Z " fill="#111111" transform="translate(339,124)"/>
<path d="M0 0 C0.66 0.33 1.32 0.66 2 1 C1.98952637 1.58789307 1.97905273 2.17578613 1.96826172 2.78149414 C1.66140144 22.69828007 3.43548161 39.43891322 11 58 C9.515 58.495 9.515 58.495 8 59 C0.35649091 45.07789416 -2.13088217 30.21362747 -2.25 14.5 C-2.2593457 13.63882568 -2.26869141 12.77765137 -2.27832031 11.89038086 C-2.25580528 7.48479439 -2.06810847 4.00490847 0 0 Z " fill="#212121" transform="translate(190,229)"/>
<path d="M0 0 C0.99 0.33 1.98 0.66 3 1 C4.10546875 3.51171875 4.10546875 3.51171875 5.1875 6.6875 C7.304942 12.16297118 9.36650111 14.80101358 14.42578125 17.71875 C14.94527344 18.1415625 15.46476562 18.564375 16 19 C16 20.32 16 21.64 16 23 C11.39849624 22.36090226 11.39849624 22.36090226 9.34375 20.5 C5.98337069 18.34935724 2.62510295 18.43231325 -1.25 18.3125 C-2.36761719 18.26125977 -2.36761719 18.26125977 -3.5078125 18.20898438 C-5.33802492 18.12685946 -7.16898669 18.06174347 -9 18 C-9 16.68 -9 15.36 -9 14 C-5.04 14 -1.08 14 3 14 C1.9790625 11.64875 1.9790625 11.64875 0.9375 9.25 C-0.60010967 5.70883835 -1.37095624 3.69037278 0 0 Z " fill="#121212" transform="translate(116,163)"/>
<path d="M0 0 C3.32926304 1.06536417 5.12436746 2.30981985 7.20703125 5.140625 C9.44690923 9.67756934 8.73300632 14.1290106 7.21484375 18.80078125 C6.25277041 21.23872337 5.23505661 23.62626287 4.125 26 C3.135 26 2.145 26 1.125 26 C1.3415625 25.38253906 1.558125 24.76507813 1.78125 24.12890625 C3.60701907 18.57552533 5.34903391 12.86816259 4.125 7 C2.86010394 5.17731637 2.86010394 5.17731637 1.125 4 C-1.52966049 4.23043864 -1.52966049 4.23043864 -3.875 5 C-4.535 7.31 -5.195 9.62 -5.875 12 C-8.80993396 11.58072372 -9.76489537 11.12075992 -11.8125 8.875 C-12.493125 8.25625 -13.17375 7.6375 -13.875 7 C-16.58205512 7.14025199 -16.58205512 7.14025199 -18.875 8 C-18.215 6.68 -17.555 5.36 -16.875 4 C-10.125 4.875 -10.125 4.875 -7.875 6 C-7.606875 5.38125 -7.33875 4.7625 -7.0625 4.125 C-5.25782229 0.89557673 -3.67545947 0 0 0 Z " fill="#121212" transform="translate(304.875,253)"/>
<path d="M0 0 C1.16015625 0.11794922 1.16015625 0.11794922 2.34375 0.23828125 C4.5 0.6875 4.5 0.6875 7.5 2.6875 C7.93132515 6.74195642 7.80019361 8.23720958 5.5 11.6875 C2.6796875 11.98046875 2.6796875 11.98046875 -0.625 11.875 C-2.26855469 11.83439453 -2.26855469 11.83439453 -3.9453125 11.79296875 C-4.78835937 11.75816406 -5.63140625 11.72335937 -6.5 11.6875 C-6.5 11.0275 -6.5 10.3675 -6.5 9.6875 C-7.139375 9.419375 -7.77875 9.15125 -8.4375 8.875 C-10.5 7.6875 -10.5 7.6875 -11.5 4.6875 C-10.84 4.3575 -10.18 4.0275 -9.5 3.6875 C-8.84 4.3475 -8.18 5.0075 -7.5 5.6875 C-6.18 5.6875 -4.86 5.6875 -3.5 5.6875 C-3.83 5.0275 -4.16 4.3675 -4.5 3.6875 C-5.49 3.3575 -6.48 3.0275 -7.5 2.6875 C-7.5 2.0275 -7.5 1.3675 -7.5 0.6875 C-4.49032056 -0.31572648 -3.0759723 -0.34348357 0 0 Z " fill="#F5F4F4" transform="translate(112.5,260.3125)"/>
<path d="M0 0 C2.9375 1.5 2.9375 1.5 5 3 C4.67 3.66 4.34 4.32 4 5 C3.34 4.34 2.68 3.68 2 3 C-0.58354218 2.83312552 -0.58354218 2.83312552 -3 3 C-3.15811388 6.05270463 -3.15811388 6.05270463 -2 9 C-2.66 9 -3.32 9 -4 9 C-4.33 9.66 -4.66 10.32 -5 11 C-5.99 11 -6.98 11 -8 11 C-10.18777466 12.9375006 -10.18777466 12.9375006 -12 15 C-12.25532751 11.93606987 -12.21861333 10.36766788 -10.625 7.6875 C-9.820625 6.8521875 -9.820625 6.8521875 -9 6 C-8.34 6 -7.68 6 -7 6 C-7 5.34 -7 4.68 -7 4 C-7.99 4 -8.98 4 -10 4 C-10.33 4.66 -10.66 5.32 -11 6 C-11.66 6 -12.32 6 -13 6 C-13 6.66 -13 7.32 -13 8 C-13.66 8 -14.32 8 -15 8 C-15.33 10.97 -15.66 13.94 -16 17 C-16.66 16.67 -17.32 16.34 -18 16 C-17.87294721 9.90146593 -15.84575499 7.0725555 -11.7890625 2.6015625 C-8.25781706 -0.55959608 -4.52836609 -0.31230111 0 0 Z " fill="#8A8989" transform="translate(397,251)"/>
<path d="M0 0 C1.19882812 0.15275391 1.19882812 0.15275391 2.421875 0.30859375 C3.02515625 0.39238281 3.6284375 0.47617187 4.25 0.5625 C3.59 1.8825 2.93 3.2025 2.25 4.5625 C1.59 4.5625 0.93 4.5625 0.25 4.5625 C0.25 5.2225 0.25 5.8825 0.25 6.5625 C1.57 6.2325 2.89 5.9025 4.25 5.5625 C4.91 7.2125 5.57 8.8625 6.25 10.5625 C5.25 11.5625 5.25 11.5625 2.52734375 11.66015625 C0.87412109 11.64275391 0.87412109 11.64275391 -0.8125 11.625 C-2.46958984 11.61146484 -2.46958984 11.61146484 -4.16015625 11.59765625 C-5.01480469 11.58605469 -5.86945313 11.57445312 -6.75 11.5625 C-6.75 10.9025 -6.75 10.2425 -6.75 9.5625 C-7.74 9.2325 -8.73 8.9025 -9.75 8.5625 C-9.42 7.9025 -9.09 7.2425 -8.75 6.5625 C-7.76 6.8925 -6.77 7.2225 -5.75 7.5625 C-5.42 6.9025 -5.09 6.2425 -4.75 5.5625 C-4.09 4.9025 -3.43 4.2425 -2.75 3.5625 C-5.06 3.2325 -7.37 2.9025 -9.75 2.5625 C-8.75 0.5625 -8.75 0.5625 -6.984375 -0.08984375 C-4.5100683 -0.47483203 -2.47863829 -0.32805507 0 0 Z " fill="#F4F3F3" transform="translate(410.75,260.4375)"/>
<path d="M0 0 C0.77537109 0.67675781 0.77537109 0.67675781 1.56640625 1.3671875 C0.90640625 2.6871875 0.24640625 4.0071875 -0.43359375 5.3671875 C-1.09359375 5.3671875 -1.75359375 5.3671875 -2.43359375 5.3671875 C-2.43359375 4.7071875 -2.43359375 4.0471875 -2.43359375 3.3671875 C-3.57828125 2.9959375 -3.57828125 2.9959375 -4.74609375 2.6171875 C-6.74536919 1.93946701 -8.73978586 1.23748112 -10.68359375 0.4140625 C-19.08993894 -3.02023706 -27.46932589 -3.8341204 -36.43359375 -4.6328125 C-36.43359375 -4.9628125 -36.43359375 -5.2928125 -36.43359375 -5.6328125 C-25.47000531 -7.76688395 -9.55730834 -6.41244765 0 0 Z " fill="#F4F3F3" transform="translate(301.43359375,215.6328125)"/>
<path d="M0 0 C-10.74525966 7.16350644 -27.89948342 6.18502335 -40.375 6.25 C-41.86386719 6.26377686 -41.86386719 6.26377686 -43.3828125 6.27783203 C-44.31609375 6.27380371 -45.249375 6.26977539 -46.2109375 6.265625 C-47.03899902 6.26336914 -47.86706055 6.26111328 -48.72021484 6.25878906 C-51.20578156 5.97664077 -52.8477752 5.24449634 -55 4 C-54.22624023 3.98541748 -53.45248047 3.97083496 -52.65527344 3.95581055 C-38.82343556 3.66585424 -12.1159296 -4.0386432 0 0 Z " fill="#D7D6D6" transform="translate(291,234)"/>
<path d="M0 0 C0.66 0.66 1.32 1.32 2 2 C1.154375 2.12375 0.30875 2.2475 -0.5625 2.375 C-5.76159688 4.83275489 -8.01845448 9.2189418 -11 14 C-12.1171875 10.28125 -12.1171875 10.28125 -11.0625 7.75 C-10.5365625 6.88375 -10.5365625 6.88375 -10 6 C-10.99 6.33 -11.98 6.66 -13 7 C-14.21869929 9.50447516 -14.21869929 9.50447516 -15 12 C-15.66 12 -16.32 12 -17 12 C-16.01 14.31 -15.02 16.62 -14 19 C-14.99 18.67 -15.98 18.34 -17 18 C-18.05630956 13.68673597 -18.19425429 11.4775418 -16.5 7.3125 C-12.5386316 1.26835028 -7.14255438 -0.84030052 0 0 Z " fill="#959494" transform="translate(99,251)"/>
<path d="M0 0 C2.04119788 1.61594832 4.04072937 3.2856382 6 5 C6 5.66 6 6.32 6 7 C7.11375 6.690625 7.11375 6.690625 8.25 6.375 C11.37796068 5.94845991 12.32595741 6.50299325 15 8 C14.37351562 8.02578125 13.74703125 8.0515625 13.1015625 8.078125 C12.28429687 8.13484375 11.46703125 8.1915625 10.625 8.25 C9.81289062 8.29640625 9.00078125 8.3428125 8.1640625 8.390625 C5.81161073 8.7922092 5.81161073 8.7922092 4.7109375 11.046875 C4.47632812 11.69140625 4.24171875 12.3359375 4 13 C3.34 12.67 2.68 12.34 2 12 C2.99 10.02 3.98 8.04 5 6 C-1.54036249 5.53283125 -5.38060399 6.71542346 -11 10 C-11.99 10.495 -11.99 10.495 -13 11 C-13.33 10.34 -13.66 9.68 -14 9 C-14.66 8.67 -15.32 8.34 -16 8 C-15.67 7.01 -15.34 6.02 -15 5 C-14.33613281 4.89042969 -13.67226562 4.78085937 -12.98828125 4.66796875 C-8.09120522 3.78863977 -4.09838572 3.00548286 0 0 Z " fill="#707070" transform="translate(100,265)"/>
<path d="M0 0 C0.33 0.99 0.66 1.98 1 3 C2.5159375 2.690625 2.5159375 2.690625 4.0625 2.375 C8.37296315 1.9644797 11.00015695 2.38467877 15 4 C17 5.75 17 5.75 18 8 C17.6875 11.25 17.6875 11.25 17 14 C14.525 13.505 14.525 13.505 12 13 C12.33 12.34 12.66 11.68 13 11 C11.02 11 9.04 11 7 11 C7 10.01 7 9.02 7 8 C7.804375 7.87625 8.60875 7.7525 9.4375 7.625 C10.283125 7.41875 11.12875 7.2125 12 7 C12.33 6.34 12.66 5.68 13 5 C5.94348748 4.85024761 5.94348748 4.85024761 -1 6 C-0.67 4.02 -0.34 2.04 0 0 Z " fill="#CCCBCB" transform="translate(402,256)"/>
<path d="M0 0 C-1 3 -1 3 -2.9375 4.0625 C-3.618125 4.371875 -4.29875 4.68125 -5 5 C-5.66 5.66 -6.32 6.32 -7 7 C-7.33 6.67 -7.66 6.34 -8 6 C-8.66 6.66 -9.32 7.32 -10 8 C-11.32 8 -12.64 8 -14 8 C-16 6 -16 6 -16.0625 4.0625 C-14.64411443 1.30916331 -12.74095117 0.60151238 -9.9140625 -0.46875 C-6.40959546 -1.4414184 -3.27615754 -1.63807877 0 0 Z " fill="#E6E5E4" transform="translate(105,271)"/>
<path d="M0 0 C-0.33 0.66 -0.66 1.32 -1 2 C-4.35481552 2.91981591 -7.5462254 3.12816395 -11.01171875 3.1328125 C-11.93404297 3.13410156 -12.85636719 3.13539063 -13.80664062 3.13671875 C-14.75732422 3.13285156 -15.70800781 3.12898438 -16.6875 3.125 C-17.64978516 3.12886719 -18.61207031 3.13273437 -19.60351562 3.13671875 C-20.52197266 3.13542969 -21.44042969 3.13414062 -22.38671875 3.1328125 C-23.22420654 3.13168457 -24.06169434 3.13055664 -24.92456055 3.12939453 C-27 3 -27 3 -29 2 C-29 1.34 -29 0.68 -29 0 C-24.72953289 -0.19656362 -20.45861919 -0.38070249 -16.1875 -0.5625 C-14.97255859 -0.61857422 -13.75761719 -0.67464844 -12.50585938 -0.73242188 C-11.34248047 -0.78076172 -10.17910156 -0.82910156 -8.98046875 -0.87890625 C-7.90692139 -0.9260376 -6.83337402 -0.97316895 -5.72729492 -1.02172852 C-3 -1 -3 -1 0 0 Z " fill="#111111" transform="translate(263,311)"/>
<path d="M0 0 C0.66 0.33 1.32 0.66 2 1 C2.48801743 8.19825708 2.48801743 8.19825708 0.25 11.875 C-3.30120482 15.22891566 -3.30120482 15.22891566 -6 16 C-9.75 15.625 -9.75 15.625 -13 15 C-13 14.01 -13 13.02 -13 12 C-12.113125 12.04125 -11.22625 12.0825 -10.3125 12.125 C-5.82627602 12.04469023 -5.82627602 12.04469023 -2 10 C-0.9496423 6.71287019 -0.42269772 3.41943529 0 0 Z " fill="#141414" transform="translate(264,167)"/>
<path d="M0 0 C1.35432675 1.31200404 2.68733482 2.64631404 4 4 C4 4.33 4 4.66 4 5 C3.35933594 5.09796875 2.71867187 5.1959375 2.05859375 5.296875 C-3.78467725 6.30703809 -8.03161399 7.75974825 -13 11 C-13.33 10.34 -13.66 9.68 -14 9 C-14.66 8.67 -15.32 8.34 -16 8 C-15.67 7.01 -15.34 6.02 -15 5 C-14.33613281 4.89042969 -13.67226563 4.78085937 -12.98828125 4.66796875 C-8.09120522 3.78863977 -4.09838572 3.00548286 0 0 Z " fill="#6F6F6F" transform="translate(398,265)"/>
<path d="M0 0 C0.99 0.33 1.98 0.66 3 1 C3 1.66 3 2.32 3 3 C2.01 3.7734375 2.01 3.7734375 1 4.5625 C-1.9525019 8.16086169 -1.34491116 11.51615492 -1 16 C-2.65 16 -4.3 16 -6 16 C-6.14285714 8.57142857 -6.14285714 8.57142857 -5 5 C-4.34 5 -3.68 5 -3 5 C-3 4.34 -3 3.68 -3 3 C-2.34 3 -1.68 3 -1 3 C-0.67 2.01 -0.34 1.02 0 0 Z " fill="#F0EFEF" transform="translate(387,254)"/>
<path d="M0 0 C3.69230769 0.69230769 3.69230769 0.69230769 5 2 C5.04092937 4.33297433 5.04241723 6.66705225 5 9 C2.625 9.625 2.625 9.625 0 10 C-0.66 9.34 -1.32 8.68 -2 8 C-1.42307692 1.42307692 -1.42307692 1.42307692 0 0 Z " fill="#3A3A3A" transform="translate(265,366)"/>
<path d="M0 0 C2.88233248 2.48928714 4.88863572 4.83295358 7 8 C7.07905064 10.33199388 7.08798769 12.66832622 7 15 C6.67 15 6.34 15 6 15 C5.938125 14.278125 5.87625 13.55625 5.8125 12.8125 C4.73764294 9.09184093 2.8757227 7.54133634 0 5 C-0.5775 4.4225 -1.155 3.845 -1.75 3.25 C-5.27510732 1.29160705 -9.02487068 1.24632212 -13 1 C-13 0.67 -13 0.34 -13 0 C-8.38114677 -0.83139358 -4.53230825 -1.37939816 0 0 Z " fill="#272727" transform="translate(260,158)"/>
<path d="M0 0 C-1.04162718 2.98683456 -1.70207827 3.8550651 -4.6015625 5.265625 C-5.59929687 5.59046875 -6.59703125 5.9153125 -7.625 6.25 C-8.62789063 6.58515625 -9.63078125 6.9203125 -10.6640625 7.265625 C-11.82035156 7.62914062 -11.82035156 7.62914062 -13 8 C-13.66 6.68 -14.32 5.36 -15 4 C-12.87875034 3.13656176 -10.75286928 2.28449352 -8.625 1.4375 C-6.84996094 0.72400391 -6.84996094 0.72400391 -5.0390625 -0.00390625 C-2 -1 -2 -1 0 0 Z " fill="#191919" transform="translate(332,316)"/>
<path d="M0 0 C0.33 0.99 0.66 1.98 1 3 C1.804375 2.773125 2.60875 2.54625 3.4375 2.3125 C8.05865536 1.90713549 11.85855515 2.91271179 16 5 C18 8 18 8 17.625 11.1875 C17.315625 12.5796875 17.315625 12.5796875 17 14 C16.34 13.67 15.68 13.34 15 13 C15 11.02 15 9.04 15 7 C14.00419922 6.80083984 14.00419922 6.80083984 12.98828125 6.59765625 C8.65885417 5.73177083 4.32942708 4.86588542 0 4 C-0.33 4.99 -0.66 5.98 -1 7 C-1.33 6.34 -1.66 5.68 -2 5 C-1.0625 2.375 -1.0625 2.375 0 0 Z " fill="#919090" transform="translate(104,256)"/>
<path d="M0 0 C0.99 0 1.98 0 3 0 C2.9278125 0.60328125 2.855625 1.2065625 2.78125 1.828125 C2.6884375 2.62734375 2.595625 3.4265625 2.5 4.25 C2.4071875 5.03890625 2.314375 5.8278125 2.21875 6.640625 C1.93845381 9.26890397 1.93845381 9.26890397 2 13 C0.125 12.6875 0.125 12.6875 -2 12 C-4 9 -4 9 -4 6 C-3.34 6 -2.68 6 -2 6 C-1.34 4.02 -0.68 2.04 0 0 Z " fill="#EEEDED" transform="translate(86,257)"/>
<path d="M0 0 C0.33 0.99 0.66 1.98 1 3 C1.66 3.33 2.32 3.66 3 4 C3.33 4.99 3.66 5.98 4 7 C3.34 7 2.68 7 2 7 C1.67 7.66 1.34 8.32 1 9 C0.01 9 -0.98 9 -2 9 C-4.18777466 10.9375006 -4.18777466 10.9375006 -6 13 C-6.25532751 9.93606987 -6.21861333 8.36766788 -4.625 5.6875 C-3.820625 4.8521875 -3.820625 4.8521875 -3 4 C-2.34 4 -1.68 4 -1 4 C-1.33 3.01 -1.66 2.02 -2 1 C-1.34 0.67 -0.68 0.34 0 0 Z " fill="#C7C6C6" transform="translate(391,253)"/>
<path d="M0 0 C3.11259604 0.345844 4.82872813 0.87379967 7.375 2.75 C9 5 9 5 8.9375 7.5625 C7.97076039 10.076023 7.05615305 11.30143878 5 13 C4.34 12.67 3.68 12.34 3 12 C3.66 10.02 4.32 8.04 5 6 C3.02 5.01 1.04 4.02 -1 3 C-0.67 2.01 -0.34 1.02 0 0 Z " fill="#1C1C1C" transform="translate(297,211)"/>
<path d="M0 0 C4.11390262 0.81019497 8.2132475 1.68135227 12.3125 2.5625 C13.56675781 2.83191406 14.82101563 3.10132813 16.11328125 3.37890625 C17.54220703 3.68634766 17.54220703 3.68634766 19 4 C17.68 4.33 16.36 4.66 15 5 C15 5.66 15 6.32 15 7 C3.97553517 5.18042813 3.97553517 5.18042813 0 2 C0 1.34 0 0.68 0 0 Z " fill="#131313" transform="translate(219,306)"/>
<path d="M0 0 C0.33 0.99 0.66 1.98 1 3 C-4.625 4.125 -4.625 4.125 -8 3 C-7.67 3.99 -7.34 4.98 -7 6 C-9.875 6.125 -9.875 6.125 -13 6 C-13.66 5.34 -14.32 4.68 -15 4 C-9.77228537 0.95842058 -6.07328688 -0.50610724 0 0 Z " fill="#F4F3F3" transform="translate(402,270)"/>
<path d="M0 0 C0 0.66 0 1.32 0 2 C-2.60356241 2.50333542 -5.20776651 3.00279378 -7.8125 3.5 C-8.55048828 3.64308594 -9.28847656 3.78617188 -10.04882812 3.93359375 C-13.07794391 4.50926281 -15.909196 5 -19 5 C-18.67 4.01 -18.34 3.02 -18 2 C-11.95679072 -0.08765411 -6.34833705 -0.23415997 0 0 Z " fill="#0E0E0E" transform="translate(225,207)"/>
<path d="M0 0 C0 0.99 0 1.98 0 3 C-1.9363704 3.50435694 -3.87414146 4.00333874 -5.8125 4.5 C-6.89144531 4.7784375 -7.97039062 5.056875 -9.08203125 5.34375 C-12 6 -12 6 -15 6 C-14.67 5.01 -14.34 4.02 -14 3 C-11.34765625 1.796875 -11.34765625 1.796875 -8.0625 0.75 C-6.44021484 0.21632813 -6.44021484 0.21632813 -4.78515625 -0.328125 C-2 -1 -2 -1 0 0 Z " fill="#1A1A1A" transform="translate(277,307)"/>
<path d="M0 0 C-6.62282847 4.41521898 -16.01602433 5.84439257 -23.8359375 4.51953125 C-24.55007813 4.34808594 -25.26421875 4.17664063 -26 4 C-26 3.67 -26 3.34 -26 3 C-25.40985107 2.91435791 -24.81970215 2.82871582 -24.21166992 2.74047852 C-21.53652607 2.35064401 -18.86201571 1.95661986 -16.1875 1.5625 C-15.25873047 1.42779297 -14.32996094 1.29308594 -13.37304688 1.15429688 C-12.48037109 1.02216797 -11.58769531 0.89003906 -10.66796875 0.75390625 C-9.43469849 0.57323608 -9.43469849 0.57323608 -8.17651367 0.38891602 C-2.09390974 -0.69796991 -2.09390974 -0.69796991 0 0 Z " fill="#E3E2E2" transform="translate(291,234)"/>
<path d="M0 0 C3.18706942 1.43561686 5.62169105 3.20266329 8.25 5.5 C8.95640625 6.1084375 9.6628125 6.716875 10.390625 7.34375 C12 9 12 9 12 11 C7.02031905 10.84910058 4.67812858 8.11880689 1.35546875 4.7890625 C0 3 0 3 0 0 Z " fill="#0C0C0C" transform="translate(240,187)"/>
<path d="M0 0 C1.16015625 0.11794922 1.16015625 0.11794922 2.34375 0.23828125 C4.5 0.6875 4.5 0.6875 7.5 2.6875 C7.17 3.6775 6.84 4.6675 6.5 5.6875 C6.5 5.0275 6.5 4.3675 6.5 3.6875 C5.84 3.6875 5.18 3.6875 4.5 3.6875 C3.84 4.3475 3.18 5.0075 2.5 5.6875 C-0.85433109 4.73816101 -4.19246505 3.79001165 -7.5 2.6875 C-7.5 2.0275 -7.5 1.3675 -7.5 0.6875 C-4.49032056 -0.31572648 -3.0759723 -0.34348357 0 0 Z " fill="#FBFAFA" transform="translate(112.5,260.3125)"/>
<path d="M0 0 C0.33 0.99 0.66 1.98 1 3 C2.5159375 2.690625 2.5159375 2.690625 4.0625 2.375 C8.31354129 1.97013892 11.03109971 2.49181789 15 4 C15.33 4.66 15.66 5.32 16 6 C14.78763672 5.87431641 14.78763672 5.87431641 13.55078125 5.74609375 C11.94783203 5.59333984 11.94783203 5.59333984 10.3125 5.4375 C9.25675781 5.33308594 8.20101563 5.22867187 7.11328125 5.12109375 C4.18573914 5.00722448 1.82868856 5.29151585 -1 6 C-0.67 4.02 -0.34 2.04 0 0 Z " fill="#878787" transform="translate(402,256)"/>
<path d="M0 0 C-0.33 1.32 -0.66 2.64 -1 4 C-5.455 4.495 -5.455 4.495 -10 5 C-10 3.68 -10 2.36 -10 1 C-6.61981469 -0.04005702 -3.5219721 -0.08004482 0 0 Z " fill="#252525" transform="translate(230,111)"/>
<path d="M0 0 C1.19882812 0.15275391 1.19882812 0.15275391 2.421875 0.30859375 C3.02515625 0.39238281 3.6284375 0.47617187 4.25 0.5625 C3.59 1.8825 2.93 3.2025 2.25 4.5625 C-3.69 3.5725 -3.69 3.5725 -9.75 2.5625 C-8.75 0.5625 -8.75 0.5625 -6.984375 -0.08984375 C-4.5100683 -0.47483203 -2.47863829 -0.32805507 0 0 Z " fill="#FAF9F9" transform="translate(410.75,260.4375)"/>
<path d="M0 0 C2.64 0.66 5.28 1.32 8 2 C7.67 2.99 7.34 3.98 7 5 C4.6875 5.625 4.6875 5.625 2 6 C1.01 5.34 0.02 4.68 -1 4 C-0.67 2.68 -0.34 1.36 0 0 Z " fill="#C9C8C8" transform="translate(400,262)"/>
<path d="M0 0 C2.25 0.25 2.25 0.25 4 1 C3.01 1 2.02 1 1 1 C1 1.66 1 2.32 1 3 C2.65 3 4.3 3 6 3 C5.67 4.32 5.34 5.64 5 7 C3.02 7 1.04 7 -1 7 C-1.33 6.34 -1.66 5.68 -2 5 C-2.66 4.67 -3.32 4.34 -4 4 C-2.25 1.9375 -2.25 1.9375 0 0 Z " fill="#C7C5C5" transform="translate(104,260)"/>
<path d="M0 0 C4.4571874 0.26218749 6.51522698 0.57711289 9.9375 3.5625 C10.618125 4.366875 11.29875 5.17125 12 6 C11.34 6.66 10.68 7.32 10 8 C8.948125 7.071875 8.948125 7.071875 7.875 6.125 C4.94222819 3.9572991 2.48817594 2.97344445 -1 2 C-0.67 1.34 -0.34 0.68 0 0 Z " fill="#0F0F0F" transform="translate(321,222)"/>
<path d="M0 0 C1.98 0 3.96 0 6 0 C5.79375 0.928125 5.5875 1.85625 5.375 2.8125 C4.63307034 6.15173402 4.63307034 6.15173402 7 9 C4.69 9 2.38 9 0 9 C1.33333333 6.33333333 2.66666667 3.66666667 4 1 C2.68 0.67 1.36 0.34 0 0 Z " fill="#393939" transform="translate(274,367)"/>
<path d="M0 0 C1.98 0 3.96 0 6 0 C5.79375 0.928125 5.5875 1.85625 5.375 2.8125 C4.63307034 6.15173402 4.63307034 6.15173402 7 9 C4.69 9 2.38 9 0 9 C1.33333333 6.33333333 2.66666667 3.66666667 4 1 C2.68 0.67 1.36 0.34 0 0 Z " fill="#383838" transform="translate(253,367)"/>
<path d="M0 0 C0.99 0.33 1.98 0.66 3 1 C2.21572648 2.64936913 1.42234741 4.29441127 0.625 5.9375 C0.18414062 6.85402344 -0.25671875 7.77054687 -0.7109375 8.71484375 C-2 11 -2 11 -4 12 C-3.67 8.7 -3.34 5.4 -3 2 C-2.01 2 -1.02 2 0 2 C0 1.34 0 0.68 0 0 Z " fill="#969696" transform="translate(91,253)"/>
<path d="M0 0 C0.66 0 1.32 0 2 0 C2.625 3.375 2.625 3.375 3 7 C2.34 7.66 1.68 8.32 1 9 C1 8.34 1 7.68 1 7 C-0.65 7 -2.3 7 -4 7 C-2.68 4.69 -1.36 2.38 0 0 Z " fill="#2F2E2E" transform="translate(288,367)"/>
<path d="M0 0 C0.99 0.33 1.98 0.66 3 1 C3 1.66 3 2.32 3 3 C4.11375 2.690625 4.11375 2.690625 5.25 2.375 C8.37796068 1.94845991 9.32595741 2.50299325 12 4 C11.37351562 4.02578125 10.74703125 4.0515625 10.1015625 4.078125 C9.28429687 4.13484375 8.46703125 4.1915625 7.625 4.25 C6.81289062 4.29640625 6.00078125 4.3428125 5.1640625 4.390625 C2.81161073 4.7922092 2.81161073 4.7922092 1.7109375 7.046875 C1.47632812 7.69140625 1.24171875 8.3359375 1 9 C0.34 8.67 -0.32 8.34 -1 8 C-0.01 6.02 0.98 4.04 2 2 C1.34 2 0.68 2 0 2 C0 1.34 0 0.68 0 0 Z " fill="#9C9C9C" transform="translate(103,269)"/>
<path d="M0 0 C1.4540625 0.0309375 1.4540625 0.0309375 2.9375 0.0625 C2.9375 0.3925 2.9375 0.7225 2.9375 1.0625 C1.2875 1.0625 -0.3625 1.0625 -2.0625 1.0625 C-0.80708443 3.57333114 0.43813488 3.93375446 2.9375 5.0625 C2.6075 6.3825 2.2775 7.7025 1.9375 9.0625 C0.2875 9.0625 -1.3625 9.0625 -3.0625 9.0625 C-3.3925 8.4025 -3.7225 7.7425 -4.0625 7.0625 C-2.4125 7.0625 -0.7625 7.0625 0.9375 7.0625 C0.298125 6.815 -0.34125 6.5675 -1 6.3125 C-3.0625 5.0625 -3.0625 5.0625 -3.875 3 C-3.936875 2.360625 -3.99875 1.72125 -4.0625 1.0625 C-3.0625 0.0625 -3.0625 0.0625 0 0 Z " fill="#212121" transform="translate(223.0625,366.9375)"/>
<path d="M0 0 C1.98 0 3.96 0 6 0 C4.68 0.33 3.36 0.66 2 1 C2 1.99 2 2.98 2 4 C3.32 4.33 4.64 4.66 6 5 C4.68 5 3.36 5 2 5 C2 5.99 2 6.98 2 8 C3.32 8.33 4.64 8.66 6 9 C4.02 9 2.04 9 0 9 C0 6.03 0 3.06 0 0 Z " fill="#1D1D1D" transform="translate(209,367)"/>
<path d="M0 0 C2.97 1.65 5.94 3.3 9 5 C8.01 6.485 8.01 6.485 7 8 C4.03 6.02 1.06 4.04 -2 2 C-1.34 1.34 -0.68 0.68 0 0 Z " fill="#191919" transform="translate(211,300)"/>
<path d="M0 0 C2.0625 0.4375 2.0625 0.4375 4 1 C3 4 3 4 1 5 C1 5.66 1 6.32 1 7 C0.34 7 -0.32 7 -1 7 C-1.33 7.99 -1.66 8.98 -2 10 C-2 9.34 -2 8.68 -2 8 C-2.66 7.67 -3.32 7.34 -4 7 C-1.125 1.125 -1.125 1.125 0 0 Z " fill="#C9C8C7" transform="translate(96,253)"/>
<path d="M0 0 C0.66 0.66 1.32 1.32 2 2 C0.6078125 2.433125 0.6078125 2.433125 -0.8125 2.875 C-4.09791667 3.8875 -4.09791667 3.8875 -7 6 C-6.67 5.01 -6.34 4.02 -6 3 C-6.66 2.67 -7.32 2.34 -8 2 C-8.33 2.66 -8.66 3.32 -9 4 C-9.66 3.34 -10.32 2.68 -11 2 C-7.36534398 -0.32617985 -4.23963281 -0.31404687 0 0 Z " fill="#848484" transform="translate(99,251)"/>
<path d="M0 0 C0.66 0 1.32 0 2 0 C2 0.66 2 1.32 2 2 C3.11375 1.690625 3.11375 1.690625 4.25 1.375 C7 1 7 1 11 3 C6.545 3.495 6.545 3.495 2 4 C1.67 4.99 1.34 5.98 1 7 C0.34 5.68 -0.32 4.36 -1 3 C-0.34 3 0.32 3 1 3 C0.67 2.01 0.34 1.02 0 0 Z " fill="#9F9E9E" transform="translate(402,270)"/>
<path d="M0 0 C3 1 3 1 4.1875 2.875 C5 5 5 5 5 8 C4.34 8 3.68 8 3 8 C2.67 8.66 2.34 9.32 2 10 C0.68373308 6.38026598 0 3.90432869 0 0 Z " fill="#1E1E1E" transform="translate(332,228)"/>
<path d="M0 0 C0.66 0 1.32 0 2 0 C2 0.66 2 1.32 2 2 C2.99 2 3.98 2 5 2 C4.34 3.32 3.68 4.64 3 6 C2.01 6 1.02 6 0 6 C-0.38218767 4.34385343 -0.71395102 2.67542976 -1 1 C-0.67 0.67 -0.34 0.34 0 0 Z " fill="#D8D7D7" transform="translate(90,273)"/>
<path d="M0 0 C0 0.66 0 1.32 0 2 C-0.66 2 -1.32 2 -2 2 C-2.66 3.32 -3.32 4.64 -4 6 C-6.2477975 3.94766315 -7.0022242 2.99332739 -8 0 C-4.71303767 -0.79953138 -3.28976808 -1.09658936 0 0 Z " fill="#C5C5C4" transform="translate(119,264)"/>
<path d="M0 0 C1.65 0 3.3 0 5 0 C5 1.32 5 2.64 5 4 C3.35 4 1.7 4 0 4 C-0.33 3.34 -0.66 2.68 -1 2 C-0.67 1.34 -0.34 0.68 0 0 Z " fill="#232323" transform="translate(165,119)"/>
<path d="M0 0 C2.64 0.33 5.28 0.66 8 1 C6.68 1.33 5.36 1.66 4 2 C4 2.66 4 3.32 4 4 C1.69 3.67 -0.62 3.34 -3 3 C-2.01 2.67 -1.02 2.34 0 2 C0 1.34 0 0.68 0 0 Z " fill="#3D3D3D" transform="translate(230,309)"/>
<path d="M0 0 C2.0625 0.4375 2.0625 0.4375 4 1 C3.34 2.65 2.68 4.3 2 6 C1.01 5.34 0.02 4.68 -1 4 C-1 1 -1 1 0 0 Z " fill="#D5D4D4" transform="translate(394,253)"/>
<path d="M0 0 C-2.17424117 2.50037734 -3.73045798 3.43628586 -7 4 C-6.625 2.0625 -6.625 2.0625 -6 0 C-3.50907189 -1.24546405 -2.58919267 -0.7767578 0 0 Z " fill="#1A1A1A" transform="translate(207,210)"/>
<path d="M0 0 C0.66 0 1.32 0 2 0 C2 1.98 2 3.96 2 6 C1.01 6 0.02 6 -1 6 C-1.042721 4.33388095 -1.04063832 2.66617115 -1 1 C-0.67 0.67 -0.34 0.34 0 0 Z " fill="#F3F2F2" transform="translate(266,368)"/>
<path d="M0 0 C0.66 0.33 1.32 0.66 2 1 C2 1.99 2 2.98 2 4 C0.02 4.33 -1.96 4.66 -4 5 C-2.25 1.125 -2.25 1.125 0 0 Z " fill="#343333" transform="translate(275,306)"/>
<path d="M0 0 C0.66 0 1.32 0 2 0 C1.67 1.32 1.34 2.64 1 4 C-0.65 4.33 -2.3 4.66 -4 5 C-2.71937515 3.2925002 -1.38232443 1.62626404 0 0 Z " fill="#0A0A0A" transform="translate(314,280)"/>
<path d="M0 0 C0.66 0 1.32 0 2 0 C1.43628586 3.26954202 0.50037734 4.82575883 -2 7 C-2.125 4.625 -2.125 4.625 -2 2 C-1.34 1.34 -0.68 0.68 0 0 Z " fill="#494949" transform="translate(387,259)"/>
<path d="M0 0 C-0.99 1.485 -0.99 1.485 -2 3 C-5.125 3.1875 -5.125 3.1875 -8 3 C-5.53387212 -0.1151089 -3.89156016 -0.31553191 0 0 Z " fill="#EAE9E9" transform="translate(225,209)"/>
</svg>
